<svg width="8096" height="1889" viewBox="0 0 8096 1889" fill="none" xmlns="http://www.w3.org/2000/svg">
<g id="Frame 2" clip-path="url(#clip0)">
<g id="hl-logo">
<ellipse id="Circle" cx="1023.82" cy="943.822" rx="700" ry="700" transform="rotate(90.2392 1023.82 943.822)" stroke="white" stroke-width="110"/>
<path id="hl2" d="M1583.36 1015.14L1582.49 901.746L1179.89 990.184L1178.58 819.189L1075.73 841.781L1077.91 1126.17L1583.36 1015.14ZM1178.21 771.491L1075.36 794.083L1073.16 506.091L1176 483.499L1178.21 771.491Z" fill="white"/>
<path id="hl1" d="M532.532 1244.04L532.009 1130.64L934.896 1043.51L934.108 872.516L1037.03 850.259L1038.34 1134.66L532.532 1244.04ZM933.888 824.817L1036.81 802.56L1035.48 514.563L932.56 536.82L933.888 824.817Z" fill="white"/>
</g>
<path id="HINTLEAD" d="M2162 692.5L2275.4 692.5L2275.4 900.4L2450 900.4L2450 1003L2275.4 1003L2275.4 1210L2162 1210L2162 692.5ZM2782.1 692.5L2668.7 692.5L2668.7 900.4L2494.1 900.4L2494.1 1003L2668.7 1003L2668.7 1210L2782.1 1210L2782.1 692.5ZM2943.8 692.5L3057.2 692.5L3057.2 1210L2943.8 1210L2943.8 692.5ZM3219.32 692.5L3321.92 692.5L3507.32 867.1L3507.32 1003L3332.72 834.7L3332.72 1210L3219.32 1210L3219.32 692.5ZM3726.02 1064.2L3726.02 692.5L3839.42 692.5L3839.42 1210L3733.22 1210L3547.82 1031.8L3547.82 900.4L3726.02 1064.2ZM4576.23 794.2L4317.03 794.2L4317.03 1210L4192.83 1210L4192.83 794.2L3956.13 794.2L3956.13 692.5L4576.23 692.5L4576.23 794.2ZM4693.25 692.5L4806.65 692.5L4806.65 1104.7L4977.65 1104.7L4977.65 1210L4693.25 1210L4693.25 692.5ZM5025.35 1104.7L5025.35 1210L5313.35 1210L5313.35 1104.7L5025.35 1104.7ZM5412.2 692.5L5700.2 692.5L5700.2 798.7L5525.6 798.7L5525.6 900.4L5700.2 900.4L5700.2 1003L5525.6 1003L5525.6 1108.3L5696.6 1108.3L5696.6 1210L5412.2 1210L5412.2 692.5ZM5744.3 1108.3L5744.3 1210L6032.3 1210L6032.3 1108.3L5744.3 1108.3ZM6032.3 798.7L6032.3 692.5L5740.7 692.5L5740.7 798.7L6032.3 798.7ZM5886.5 1003L5886.5 900.4L5740.7 900.4L5740.7 1003L5886.5 1003ZM6131.6 754.6L6234.2 692.5L6419.6 692.5L6419.6 794.2L6245 794.2L6245 900.4L6419.6 900.4L6419.6 1003L6245 1003L6245 1210L6131.6 1210L6131.6 754.6ZM6751.7 754.6L6645.5 692.5L6460.1 692.5L6460.1 794.2L6638.3 794.2L6638.3 900.4L6460.1 900.4L6460.1 1003L6638.3 1003L6638.3 1210L6751.7 1210L6751.7 754.6ZM6913.37 692.5L7201.37 692.5L7201.37 794.2L7026.77 794.2L7026.77 1104.7L7201.37 1104.7L7201.37 1210L6913.37 1210L6913.37 692.5ZM7533.47 754.6L7431.77 692.5L7245.47 692.5L7245.47 794.2L7420.07 794.2L7420.07 1104.7L7245.47 1104.7L7245.47 1210L7431.77 1210L7533.47 1148.8L7533.47 754.6Z" fill="white"/>
</g>
<defs>
<clipPath id="clip0">
<rect width="8096" height="1889" fill="white"/>
</clipPath>
</defs>
</svg>
