<svg width="2748" height="2748" viewBox="0 0 2748 2748" fill="none" xmlns="http://www.w3.org/2000/svg">
<g id="HINTLEAD LOGO">
<g id="Circle" filter="url(#filter0_d)">
<circle cx="1374.1" cy="1373.81" r="645" transform="rotate(0.643003 1374.1 1373.81)" stroke="url(#paint0_linear)" stroke-width="110"/>
</g>
<path id="HL2" d="M1933.64 1445.13L1932.77 1331.74L1530.17 1420.17L1528.86 1249.18L1426.01 1271.77L1428.19 1556.16L1933.64 1445.13ZM1528.49 1201.48L1425.64 1224.07L1423.43 936.08L1526.28 913.488L1528.49 1201.48Z" fill="url(#paint1_linear)"/>
<g id="HL1" filter="url(#filter1_d)">
<path d="M882.81 1674.03L882.287 1560.63L1285.17 1473.5L1284.39 1302.51L1387.31 1280.25L1388.62 1564.65L882.81 1674.03ZM1284.17 1254.81L1387.09 1232.55L1385.76 944.552L1282.84 966.809L1284.17 1254.81Z" fill="url(#paint2_linear)"/>
</g>
</g>
<defs>
<filter id="filter0_d" x="662.289" y="665.999" width="1423.62" height="1423.62" filterUnits="userSpaceOnUse" color-interpolation-filters="sRGB">
<feFlood flood-opacity="0" result="BackgroundImageFix"/>
<feColorMatrix in="SourceAlpha" type="matrix" values="0 0 0 0 0 0 0 0 0 0 0 0 0 0 0 0 0 0 127 0"/>
<feOffset dy="4"/>
<feGaussianBlur stdDeviation="2"/>
<feColorMatrix type="matrix" values="0 0 0 0 0 0 0 0 0 0 0 0 0 0 0 0 0 0 0.25 0"/>
<feBlend mode="normal" in2="BackgroundImageFix" result="effect1_dropShadow"/>
<feBlend mode="normal" in="SourceGraphic" in2="effect1_dropShadow" result="shape"/>
</filter>
<filter id="filter1_d" x="878.287" y="944.552" width="514.331" height="737.476" filterUnits="userSpaceOnUse" color-interpolation-filters="sRGB">
<feFlood flood-opacity="0" result="BackgroundImageFix"/>
<feColorMatrix in="SourceAlpha" type="matrix" values="0 0 0 0 0 0 0 0 0 0 0 0 0 0 0 0 0 0 127 0"/>
<feOffset dy="4"/>
<feGaussianBlur stdDeviation="2"/>
<feColorMatrix type="matrix" values="0 0 0 0 0 0 0 0 0 0 0 0 0 0 0 0 0 0 0.25 0"/>
<feBlend mode="normal" in2="BackgroundImageFix" result="effect1_dropShadow"/>
<feBlend mode="normal" in="SourceGraphic" in2="effect1_dropShadow" result="shape"/>
</filter>
<linearGradient id="paint0_linear" x1="1547.22" y1="2021.12" x2="1185.93" y2="741.553" gradientUnits="userSpaceOnUse">
<stop offset="0.00537634" stop-color="#FC00B5"/>
<stop offset="1" stop-color="#001AFF"/>
</linearGradient>
<linearGradient id="paint1_linear" x1="1973.4" y1="1406.67" x2="1983.05" y2="1511.03" gradientUnits="userSpaceOnUse">
<stop offset="0.102702" stop-color="#FC00B5"/>
<stop offset="0.987832" stop-color="#001AFF"/>
</linearGradient>
<linearGradient id="paint2_linear" x1="820.463" y1="1663.17" x2="852.32" y2="1752.44" gradientUnits="userSpaceOnUse">
<stop offset="0.102702" stop-color="#FC00B5"/>
<stop offset="0.987832" stop-color="#001AFF"/>
</linearGradient>
</defs>
</svg>
