<svg width="1194" height="115" viewBox="0 0 1194 115" fill="none" xmlns="http://www.w3.org/2000/svg">
<path id="HINTLEAD" d="M2.98023e-07 -9.53674e-06H25.2V46.2H64V69H25.2V115H2.98023e-07V-9.53674e-06ZM137.8 -9.53674e-06H112.6V46.2H73.8V69H112.6V115H137.8V-9.53674e-06ZM173.734 -9.53674e-06H198.934V115H173.734V-9.53674e-06ZM234.961 -9.53674e-06H257.761L298.961 38.8V69L260.161 31.6V115H234.961V-9.53674e-06ZM347.561 82.6V-9.53674e-06H372.761V115H349.161L307.961 75.4V46.2L347.561 82.6ZM536.495 22.6H478.895V115H451.295V22.6H398.695V-9.53674e-06H536.495V22.6ZM562.5 -9.53674e-06H587.7V91.6H625.7V115H562.5V-9.53674e-06ZM636.3 91.6V115H700.3V91.6H636.3ZM722.266 -9.53674e-06H786.266V23.6H747.466V46.2H786.266V69H747.466V92.4H785.466V115H722.266V-9.53674e-06ZM796.066 92.4V115H860.066V92.4H796.066ZM860.066 23.6V-9.53674e-06H795.266V23.6H860.066ZM827.666 69V46.2H795.266V69H827.666ZM882.133 13.8L904.933 -9.53674e-06H946.133V22.6H907.333V46.2H946.133V69H907.333V115H882.133V13.8ZM1019.93 13.8L996.333 -9.53674e-06H955.133V22.6H994.733V46.2H955.133V69H994.733V115H1019.93V13.8ZM1055.86 -9.53674e-06H1119.86V22.6H1081.06V91.6H1119.86V115H1055.86V-9.53674e-06ZM1193.66 13.8L1171.06 -9.53674e-06H1129.66V22.6H1168.46V91.6H1129.66V115H1171.06L1193.66 101.4V13.8Z" fill="url(#paint0_linear)"/>
<defs>
<linearGradient id="paint0_linear" x1="1223.05" y1="8.58084" x2="14.6986" y2="98.4778" gradientUnits="userSpaceOnUse">
<stop stop-color="#FC00B5"/>
<stop offset="1" stop-color="#001AFF"/>
</linearGradient>
</defs>
</svg>
