<svg width="6000" height="6000" viewBox="0 0 6000 6000" fill="none" xmlns="http://www.w3.org/2000/svg">
<g id="Frame-48">
<g id="Rectangle 1" filter="url(#filter0_d)">
<path d="M973 1544.2L4093.59 1539.07C4789.62 1537.93 5354.78 2101.24 5355.93 2797.26C5357.07 3493.29 4793.76 4058.45 4097.74 4059.6L977.144 4064.73L973 1544.2Z" fill="black"/>
</g>
<path id="L" d="M3102.12 3633.43L2941.75 3473.06L3524.69 2890.12L3282.86 2648.29L3431.78 2499.37L3833.98 2901.58L3102.12 3633.43ZM3215.4 2580.83L3364.32 2431.92L2957.03 2024.62L2808.11 2173.54L3215.4 2580.83Z" fill="white"/>
<path id="L_2" d="M2006.12 3633.43L1845.75 3473.06L2428.69 2890.12L2186.86 2648.29L2335.78 2499.37L2737.98 2901.58L2006.12 3633.43ZM2119.4 2580.83L2268.32 2431.92L1861.03 2024.62L1712.11 2173.54L2119.4 2580.83Z" fill="#C4C4C4"/>
<g id="Group-4">
<path id="LEAD.." d="M2429.11 4216.5L2492.11 4216.5L2492.11 4445.5L2587.11 4445.5L2587.11 4504L2429.11 4504L2429.11 4216.5ZM2613.61 4445.5L2613.61 4504L2773.61 4504L2773.61 4445.5L2613.61 4445.5ZM2828.52 4216.5L2988.52 4216.5L2988.52 4275.5L2891.52 4275.5L2891.52 4332L2988.52 4332L2988.52 4389L2891.52 4389L2891.52 4447.5L2986.52 4447.5L2986.52 4504L2828.52 4504L2828.52 4216.5ZM3013.02 4447.5L3013.02 4504L3173.02 4504L3173.02 4447.5L3013.02 4447.5ZM3173.02 4275.5L3173.02 4216.5L3011.02 4216.5L3011.02 4275.5L3173.02 4275.5ZM3092.02 4389L3092.02 4332L3011.02 4332L3011.02 4389L3092.02 4389ZM3228.19 4251L3285.19 4216.5L3388.19 4216.5L3388.19 4273L3291.19 4273L3291.19 4332L3388.19 4332L3388.19 4389L3291.19 4389L3291.19 4504L3228.19 4504L3228.19 4251ZM3572.69 4251L3513.69 4216.5L3410.69 4216.5L3410.69 4273L3509.69 4273L3509.69 4332L3410.69 4332L3410.69 4389L3509.69 4389L3509.69 4504L3572.69 4504L3572.69 4251ZM3662.51 4216.5L3822.51 4216.5L3822.51 4273L3725.51 4273L3725.51 4445.5L3822.51 4445.5L3822.51 4504L3662.51 4504L3662.51 4216.5ZM4007.01 4251L3950.51 4216.5L3847.01 4216.5L3847.01 4273L3944.01 4273L3944.01 4445.5L3847.01 4445.5L3847.01 4504L3950.51 4504L4007.01 4470L4007.01 4251ZM4056.32 4435L4125.32 4435L4125.32 4504L4056.32 4504L4056.32 4435ZM4205.24 4435L4274.24 4435L4274.24 4504L4205.24 4504L4205.24 4435Z" fill="black"/>
<path id="HINT" d="M1023 4216.5L1086 4216.5L1086 4332L1183 4332L1183 4389L1086 4389L1086 4504L1023 4504L1023 4216.5ZM1367.5 4216.5L1304.5 4216.5L1304.5 4332L1207.5 4332L1207.5 4389L1304.5 4389L1304.5 4504L1367.5 4504L1367.5 4216.5ZM1457.34 4216.5L1520.34 4216.5L1520.34 4504L1457.34 4504L1457.34 4216.5ZM1610.4 4216.5L1667.4 4216.5L1770.4 4313.5L1770.4 4389L1673.4 4295.5L1673.4 4504L1610.4 4504L1610.4 4216.5ZM1891.9 4423L1891.9 4216.5L1954.9 4216.5L1954.9 4504L1895.9 4504L1792.9 4405L1792.9 4332L1891.9 4423ZM2364.24 4273L2220.24 4273L2220.24 4504L2151.24 4504L2151.24 4273L2019.74 4273L2019.74 4216.5L2364.24 4216.5L2364.24 4273Z" fill="black"/>
</g>
</g>
<defs>
<filter id="filter0_d" x="969" y="1537" width="4393" height="2535.72" filterUnits="userSpaceOnUse" color-interpolation-filters="sRGB">
<feFlood flood-opacity="0" result="BackgroundImageFix"/>
<feColorMatrix in="SourceAlpha" type="matrix" values="0 0 0 0 0 0 0 0 0 0 0 0 0 0 0 0 0 0 127 0"/>
<feOffset dy="4"/>
<feGaussianBlur stdDeviation="2"/>
<feColorMatrix type="matrix" values="0 0 0 0 0 0 0 0 0 0 0 0 0 0 0 0 0 0 0.25 0"/>
<feBlend mode="normal" in2="BackgroundImageFix" result="effect1_dropShadow"/>
<feBlend mode="normal" in="SourceGraphic" in2="effect1_dropShadow" result="shape"/>
</filter>
</defs>
</svg>
