<svg width="4381" height="2526" viewBox="0 0 4381 2526" fill="none" xmlns="http://www.w3.org/2000/svg">
<g clip-path="url(#clip0)">
<g filter="url(#filter0_d)">
<path fill-rule="evenodd" clip-rule="evenodd" d="M0 5.13189L3120.59 0.00174011C3816.62 -1.1425 4381.78 562.168 4382.93 1258.19C4384.07 1954.21 3820.76 2519.38 3124.74 2520.52L4.14365 2525.65L0 5.13189ZM2129.12 2094.36L1968.75 1933.99L2551.69 1351.05L2309.86 1109.22L2458.78 960.305L2860.98 1362.51L2129.12 2094.36ZM2242.4 1041.76L2391.32 892.847L1984.03 485.553L1835.11 634.47L2242.4 1041.76ZM872.752 1933.99L1033.12 2094.36L1764.98 1362.51L1362.78 960.305L1213.86 1109.22L1455.69 1351.05L872.752 1933.99ZM1295.32 892.847L1146.4 1041.76L739.109 634.47L888.026 485.553L1295.32 892.847Z" fill="#001AFF"/>
</g>
</g>
<defs>
<filter id="filter0_d" x="-4" y="0" width="4390.93" height="2533.65" filterUnits="userSpaceOnUse" color-interpolation-filters="sRGB">
<feFlood flood-opacity="0" result="BackgroundImageFix"/>
<feColorMatrix in="SourceAlpha" type="matrix" values="0 0 0 0 0 0 0 0 0 0 0 0 0 0 0 0 0 0 127 0"/>
<feOffset dy="4"/>
<feGaussianBlur stdDeviation="2"/>
<feColorMatrix type="matrix" values="0 0 0 0 0 0 0 0 0 0 0 0 0 0 0 0 0 0 0.25 0"/>
<feBlend mode="normal" in2="BackgroundImageFix" result="effect1_dropShadow"/>
<feBlend mode="normal" in="SourceGraphic" in2="effect1_dropShadow" result="shape"/>
</filter>
<clipPath id="clip0">
<rect width="4381" height="2526" rx="8" fill="white"/>
</clipPath>
</defs>
</svg>
