<svg width="8256" height="3086" viewBox="0 0 8256 3086" fill="none" xmlns="http://www.w3.org/2000/svg">
<g id="Frame-54G">
<g id="Group-4">
<path id="Subtract" fill-rule="evenodd" clip-rule="evenodd" d="M5496 1286.61L6194.56 1285.46C6346.94 1285.21 6470.68 1408.54 6470.93 1560.93C6471.18 1713.31 6347.85 1837.05 6195.46 1837.3L5496.91 1838.45L5496 1286.61ZM6048.51 1748.54L6012.88 1712.91L6142.42 1583.36L6088.68 1529.62L6121.77 1496.53L6211.15 1585.91L6048.51 1748.54ZM6073.69 1514.63L6106.78 1481.54L6016.27 1391.03L5983.18 1424.12L6073.69 1514.63ZM5728.37 1709.11L5764.01 1744.74L5926.64 1582.11L5837.27 1492.73L5804.17 1525.82L5857.91 1579.56L5728.37 1709.11ZM5822.28 1477.74L5789.18 1510.83L5698.67 1420.32L5731.77 1387.23L5822.28 1477.74Z" fill="white"/>
<path id="LEAD" d="M3814 1368.5L3902.2 1368.5L3902.2 1689.1L4035.2 1689.1L4035.2 1771L3814 1771L3814 1368.5ZM4072.3 1689.1L4072.3 1771L4296.3 1771L4296.3 1689.1L4072.3 1689.1ZM4373.18 1368.5L4597.18 1368.5L4597.18 1451.1L4461.38 1451.1L4461.38 1530.2L4597.18 1530.2L4597.18 1610L4461.38 1610L4461.38 1691.9L4594.38 1691.9L4594.38 1771L4373.18 1771L4373.18 1368.5ZM4631.48 1691.9L4631.48 1771L4855.48 1771L4855.48 1691.9L4631.48 1691.9ZM4855.48 1451.1L4855.48 1368.5L4628.68 1368.5L4628.68 1451.1L4855.48 1451.1ZM4742.08 1610L4742.08 1530.2L4628.68 1530.2L4628.68 1610L4742.08 1610ZM4932.71 1416.8L5012.51 1368.5L5156.71 1368.5L5156.71 1447.6L5020.91 1447.6L5020.91 1530.2L5156.71 1530.2L5156.71 1610L5020.91 1610L5020.91 1771L4932.71 1771L4932.71 1416.8ZM5415.01 1416.8L5332.41 1368.5L5188.21 1368.5L5188.21 1447.6L5326.81 1447.6L5326.81 1530.2L5188.21 1530.2L5188.21 1610L5326.81 1610L5326.81 1771L5415.01 1771L5415.01 1416.8Z" fill="white"/>
</g>
<g id="Group-3">
<path id="HINT" d="M1856 1368.96L1944.2 1368.96L1944.2 1530.66L2080 1530.66L2080 1610.46L1944.2 1610.46L1944.2 1771.46L1856 1771.46L1856 1368.96ZM2338.3 1368.96L2250.1 1368.96L2250.1 1530.66L2114.3 1530.66L2114.3 1610.46L2250.1 1610.46L2250.1 1771.46L2338.3 1771.46L2338.3 1368.96ZM2464.07 1368.96L2552.27 1368.96L2552.27 1771.46L2464.07 1771.46L2464.07 1368.96ZM2678.36 1368.96L2758.16 1368.96L2902.36 1504.76L2902.36 1610.46L2766.56 1479.56L2766.56 1771.46L2678.36 1771.46L2678.36 1368.96ZM3072.46 1658.06L3072.46 1368.96L3160.66 1368.96L3160.66 1771.46L3078.06 1771.46L2933.86 1632.86L2933.86 1530.66L3072.46 1658.06ZM3733.73 1448.06L3532.13 1448.06L3532.13 1771.46L3435.53 1771.46L3435.53 1448.06L3251.43 1448.06L3251.43 1368.96L3733.73 1368.96L3733.73 1448.06Z" fill="white" fill-opacity="0.6"/>
</g>
<g id="Group-2">
<path id="Lc2" d="M6048.52 1748.54L6012.88 1712.91L6142.42 1583.36L6088.68 1529.62L6121.77 1496.53L6211.15 1585.91L6048.52 1748.54ZM6073.69 1514.63L6106.78 1481.54L6016.27 1391.03L5983.18 1424.12L6073.69 1514.63Z" fill="white" fill-opacity="0.6"/>
</g>
<g id="Group-1">
<path id="Lc1" d="M5764.01 1744.74L5728.37 1709.11L5857.91 1579.56L5804.17 1525.82L5837.27 1492.73L5926.64 1582.11L5764.01 1744.74ZM5789.18 1510.83L5822.27 1477.74L5731.77 1387.23L5698.67 1420.32L5789.18 1510.83Z" fill="white" fill-opacity="0.6"/>
</g>
</g>
</svg>
