<svg width="4690" height="576" viewBox="0 0 4690 576" fill="none" xmlns="http://www.w3.org/2000/svg">
<g clip-path="url(#clip0)">
<path fill-rule="evenodd" clip-rule="evenodd" d="M3679 13.6097L4377.56 12.4613C4529.94 12.2108 4653.68 135.541 4653.93 287.928C4654.18 440.314 4530.85 564.051 4378.46 564.301L3679.91 565.45L3679 13.6097ZM4231.51 475.544L4195.88 439.906L4325.42 310.364L4271.68 256.624L4304.77 223.531L4394.15 312.909L4231.51 475.544ZM4256.69 241.633L4289.78 208.54L4199.27 118.031L4166.18 151.123L4256.69 241.633ZM3911.37 436.106L3947.01 471.745L4109.64 309.11L4020.27 219.732L3987.17 252.824L4040.91 306.564L3911.37 436.106ZM4005.28 204.741L3972.18 237.834L3881.67 147.324L3914.77 114.231L4005.28 204.741Z" fill="white"/>
<path d="M1997 95.5L2085.2 95.5L2085.2 416.1L2218.2 416.1L2218.2 498L1997 498L1997 95.5ZM2255.3 416.1L2255.3 498L2479.3 498L2479.3 416.1L2255.3 416.1ZM2556.18 95.5L2780.18 95.5L2780.18 178.1L2644.38 178.1L2644.38 257.2L2780.18 257.2L2780.18 337L2644.38 337L2644.38 418.9L2777.38 418.9L2777.38 498L2556.18 498L2556.18 95.5ZM2814.48 418.9L2814.48 498L3038.48 498L3038.48 418.9L2814.48 418.9ZM3038.48 178.1L3038.48 95.5L2811.68 95.5L2811.68 178.1L3038.48 178.1ZM2925.08 337L2925.08 257.2L2811.68 257.2L2811.68 337L2925.08 337ZM3115.71 143.8L3195.51 95.5L3339.71 95.5L3339.71 174.6L3203.91 174.6L3203.91 257.2L3339.71 257.2L3339.71 337L3203.91 337L3203.91 498L3115.71 498L3115.71 143.8ZM3598.01 143.8L3515.41 95.5L3371.21 95.5L3371.21 174.6L3509.81 174.6L3509.81 257.2L3371.21 257.2L3371.21 337L3509.81 337L3509.81 498L3598.01 498L3598.01 143.8Z" fill="white"/>
<path d="M39 95.9609L127.2 95.9609L127.2 257.661L263 257.661L263 337.461L127.2 337.461L127.2 498.461L39 498.461L39 95.9609ZM521.3 95.9609L433.1 95.9609L433.1 257.661L297.3 257.661L297.3 337.461L433.1 337.461L433.1 498.461L521.3 498.461L521.3 95.9609ZM647.07 95.9609L735.27 95.9609L735.27 498.461L647.07 498.461L647.07 95.9609ZM861.363 95.9609L941.163 95.9609L1085.36 231.761L1085.36 337.461L949.563 206.561L949.563 498.461L861.363 498.461L861.363 95.9609ZM1255.46 385.061L1255.46 95.9609L1343.66 95.9609L1343.66 498.461L1261.06 498.461L1116.86 359.861L1116.86 257.661L1255.46 385.061ZM1916.73 175.061L1715.13 175.061L1715.13 498.461L1618.53 498.461L1618.53 175.061L1434.43 175.061L1434.43 95.9609L1916.73 95.9609L1916.73 175.061Z" fill="white" fill-opacity="0.6"/>
</g>
<defs>
<clipPath id="clip0">
<rect width="4690" height="576" fill="white"/>
</clipPath>
</defs>
</svg>
