<svg width="5160" height="2960" viewBox="0 0 5160 2960" fill="none" xmlns="http://www.w3.org/2000/svg">
<g id="Frame 4">
<g id="Group-4">
<path id="LEAD.." d="M2853.48 1491.96L2878.68 1491.96L2878.68 1583.56L2916.68 1583.56L2916.68 1606.96L2853.48 1606.96L2853.48 1491.96ZM2927.28 1583.56L2927.28 1606.96L2991.28 1606.96L2991.28 1583.56L2927.28 1583.56ZM3013.24 1491.96L3077.24 1491.96L3077.24 1515.56L3038.44 1515.56L3038.44 1538.16L3077.24 1538.16L3077.24 1560.96L3038.44 1560.96L3038.44 1584.36L3076.44 1584.36L3076.44 1606.96L3013.24 1606.96L3013.24 1491.96ZM3087.04 1584.36L3087.04 1606.96L3151.04 1606.96L3151.04 1584.36L3087.04 1584.36ZM3151.04 1515.56L3151.04 1491.96L3086.24 1491.96L3086.24 1515.56L3151.04 1515.56ZM3118.64 1560.96L3118.64 1538.16L3086.24 1538.16L3086.24 1560.96L3118.64 1560.96ZM3173.11 1505.76L3195.91 1491.96L3237.11 1491.96L3237.11 1514.56L3198.31 1514.56L3198.31 1538.16L3237.11 1538.16L3237.11 1560.96L3198.31 1560.96L3198.31 1606.96L3173.11 1606.96L3173.11 1505.76ZM3310.91 1505.76L3287.31 1491.96L3246.11 1491.96L3246.11 1514.56L3285.71 1514.56L3285.71 1538.16L3246.11 1538.16L3246.11 1560.96L3285.71 1560.96L3285.71 1606.96L3310.91 1606.96L3310.91 1505.76ZM3346.84 1491.96L3410.84 1491.96L3410.84 1514.56L3372.04 1514.56L3372.04 1583.56L3410.84 1583.56L3410.84 1606.96L3346.84 1606.96L3346.84 1491.96ZM3484.64 1505.76L3462.04 1491.96L3420.64 1491.96L3420.64 1514.56L3459.44 1514.56L3459.44 1583.56L3420.64 1583.56L3420.64 1606.96L3462.04 1606.96L3484.64 1593.36L3484.64 1505.76ZM3504.36 1579.36L3531.96 1579.36L3531.96 1606.96L3504.36 1606.96L3504.36 1579.36ZM3563.93 1579.36L3591.53 1579.36L3591.53 1606.96L3563.93 1606.96L3563.93 1579.36Z" fill="white"/>
</g>
<g id="Group-3">
<path id="HINT" d="M2400.48 1362.96L2425.68 1362.96L2425.68 1409.16L2464.48 1409.16L2464.48 1431.96L2425.68 1431.96L2425.68 1477.96L2400.48 1477.96L2400.48 1362.96ZM2538.28 1362.96L2513.08 1362.96L2513.08 1409.16L2474.28 1409.16L2474.28 1431.96L2513.08 1431.96L2513.08 1477.96L2538.28 1477.96L2538.28 1362.96ZM2574.21 1362.96L2599.41 1362.96L2599.41 1477.96L2574.21 1477.96L2574.21 1362.96ZM2635.44 1362.96L2658.24 1362.96L2699.44 1401.76L2699.44 1431.96L2660.64 1394.56L2660.64 1477.96L2635.44 1477.96L2635.44 1362.96ZM2748.04 1445.56L2748.04 1362.96L2773.24 1362.96L2773.24 1477.96L2749.64 1477.96L2708.44 1438.36L2708.44 1409.16L2748.04 1445.56ZM2936.97 1385.56L2879.37 1385.56L2879.37 1477.96L2851.77 1477.96L2851.77 1385.56L2799.17 1385.56L2799.17 1362.96L2936.97 1362.96L2936.97 1385.56Z" fill="white" fill-opacity="0.4"/>
</g>
<g id="Group-2">
<path id="hl2" d="M2131.24 1484.06L2130.94 1408.46L1878.16 1516.25L1877.71 1402.25L1813.14 1429.79L1813.89 1619.39L2131.24 1484.06ZM1877.59 1370.45L1813.01 1397.99L1812.25 1205.99L1876.83 1178.45L1877.59 1370.45Z" fill="white"/>
</g>
<g id="Group-1">
<path id="hl1" d="M1452.51 1777.46L1451.68 1701.86L1704.12 1593.29L1702.85 1479.3L1767.34 1451.56L1769.44 1641.15L1452.51 1777.46ZM1702.5 1447.5L1766.99 1419.76L1764.86 1227.78L1700.37 1255.51L1702.5 1447.5Z" fill="white" fill-opacity="0.4"/>
</g>
</g>
</svg>
